<?xml version="1.0" encoding="UTF-8"?>
    <!-- The Best Svg Icon site in the world: iconSvg.co, Visit us! https://iconsvg.co -->
    <svg id="svg" fill="#000000" stroke="#000000" width="200px" height="200px" version="1.1" viewBox="144 144 512 512" xmlns="http://www.w3.org/2000/svg">
    <g id="IconSvg_bgCarrier" stroke-width="0"></g>
    <g id="IconSvg_tracerCarrier" stroke-linecap="round" stroke-linejoin="round" stroke="#CCCCCC"></g>
     <g id="IconSvg_iconCarrier">
      <defs xmlns="http://www.w3.org/2000/svg">
  <clipPath id="a">
   <path d="m148.09 148.09h503.81v503.81h-503.81z"/>
  </clipPath>
 </defs>
<g xmlns="http://www.w3.org/2000/svg" clip-path="url(#a)">
  <path d="m400 651.9c-66.812 0-130.88-26.539-178.12-73.781-47.242-47.242-73.781-111.31-73.781-178.12 0-66.812 26.539-130.88 73.781-178.12s111.31-73.781 178.12-73.781c66.809 0 130.88 26.539 178.12 73.781 47.242 47.242 73.781 111.31 73.781 178.12 0 66.809-26.539 130.88-73.781 178.12-47.242 47.242-111.31 73.781-178.12 73.781zm0-467.86c-42.715 0-84.469 12.664-119.98 36.395-35.516 23.73-63.195 57.461-79.543 96.922-16.344 39.461-20.621 82.883-12.289 124.77 8.332 41.895 28.902 80.375 59.105 110.58 30.203 30.199 68.684 50.77 110.57 59.102 41.891 8.332 85.312 4.0547 124.78-12.289 39.461-16.344 73.188-44.027 96.918-79.539 23.73-35.516 36.395-77.27 36.395-119.98-0.050781-57.262-22.82-112.16-63.309-152.65-40.488-40.488-95.391-63.258-152.65-63.309zm122.08 297.64-82.352-82.352 81.773-81.773-0.007812-0.003906c2.4023-2.4492 2.4023-6.3672 0-8.8164l-30.23-30.23 0.003906 0.003906c-2.4492-2.4023-6.3672-2.4023-8.8164 0l-81.773 81.773-82.352-82.352v-0.003906c-2.4492-2.4023-6.3672-2.4023-8.8164 0l-31.488 31.488c-2.4023 2.4492-2.4023 6.3672 0 8.8164l82.352 82.352-81.773 81.773h0.003906c-2.4023 2.4492-2.4023 6.3672 0 8.8164l30.23 30.23h-0.003906c2.4492 2.3984 6.3672 2.3984 8.8164 0l81.773-81.773 82.352 82.352v0.003907c2.4492 2.3984 6.3672 2.3984 8.8164 0l31.488-31.488c2.3398-2.4375 2.3398-6.2852 0-8.7227z"/>
 </g>

      </g>
      </svg>