<!--?xml version="1.0" encoding="UTF-8"?-->
    <!-- The Best Svg Icon site in the world: iconSvg.co, Visit us! https://iconsvg.co -->
    <svg id="svg" fill="#ff0000" stroke="#ff0000" width="200" height="200" version="1.1" viewBox="144 144 512 512" xmlns="http://www.w3.org/2000/svg">
    <g id="IconSvg_iconCarrier">
      <g xmlns="http://www.w3.org/2000/svg" fill-rule="evenodd">
  <path d="m494.46 337.02v-62.977c0-52.137-42.328-94.465-94.461-94.465s-94.465 42.328-94.465 94.465v125.95c0 52.137 42.332 94.461 94.465 94.461s94.461-42.324 94.461-94.461c0-8.6914-7.0547-15.746-15.742-15.746s-15.742 7.0547-15.742 15.746c0 34.754-28.223 62.977-62.977 62.977-34.758 0-62.977-28.223-62.977-62.977v-125.95c0-34.754 28.219-62.977 62.977-62.977 34.754 0 62.977 28.223 62.977 62.977v62.977c0 8.6914 7.0547 15.742 15.742 15.742s15.742-7.0508 15.742-15.742z"></path>
  <path d="m242.55 368.51v31.488c0 86.887 70.547 157.44 157.45 157.44 86.895 0 157.44-70.551 157.44-157.44v-31.488c0-8.6836-7.0508-15.742-15.746-15.742-8.6953 0-15.746 7.0586-15.746 15.742v31.488c0 69.516-56.43 125.95-125.95 125.95s-125.95-56.438-125.95-125.95v-31.488c0-8.6836-7.0469-15.742-15.746-15.742-8.6953 0-15.746 7.0586-15.746 15.742z"></path>
  <path d="m321.28 620.41h157.44c8.6914 0 15.742-7.0508 15.742-15.742s-7.0508-15.746-15.742-15.746h-157.44c-8.6914 0-15.742 7.0547-15.742 15.746s7.0508 15.742 15.742 15.742z"></path>
  <path d="m384.25 541.7v62.977c0 8.6914 7.0547 15.742 15.746 15.742 8.6875 0 15.742-7.0508 15.742-15.742v-62.977c0-8.6914-7.0547-15.746-15.742-15.746-8.6914 0-15.746 7.0547-15.746 15.746z"></path>
  <path d="m217.55 286.78 346.37 251.91c7.0234 5.1055 16.879 3.5547 21.984-3.4805 5.1172-7.0234 3.5586-16.875-3.4688-21.992l-346.37-251.9c-7.0195-5.1094-16.875-3.5547-21.984 3.4766-5.1172 7.0234-3.5586 16.879 3.4688 21.992z"></path>
 </g>
    </g>
    </svg>