<!--?xml version="1.0" encoding="UTF-8"?-->
    <!-- The Best Svg Icon site in the world: iconSvg.co, Visit us! https://iconsvg.co -->
    <svg id="svg" fill="#1a34ff" stroke="#1a34ff" width="200" height="200" version="1.1" viewBox="144 144 512 512" xmlns="http://www.w3.org/2000/svg">
    <g id="IconSvg_bgCarrier" stroke-width="0"></g>
    <g id="IconSvg_tracerCarrier" stroke-linecap="round" stroke-linejoin="round" stroke="#CCCCCC" stroke-width="0">
      <path xmlns="http://www.w3.org/2000/svg" d="m400 467.54c20.57-0.039062 40.289-8.2305 54.836-22.777 14.547-14.547 22.738-34.266 22.781-54.84v-148.46c0-27.73-14.793-53.355-38.809-67.219-24.016-13.867-53.605-13.867-77.621 0-24.012 13.863-38.809 39.488-38.809 67.219v148.46c0.042969 20.574 8.2344 40.293 22.781 54.84s34.266 22.738 54.84 22.777zm-46.133-226.08c0-16.48 8.793-31.711 23.066-39.949 14.273-8.2422 31.855-8.2422 46.129 0 14.273 8.2383 23.066 23.469 23.066 39.949v148.46c0 16.48-8.793 31.711-23.066 39.949-14.273 8.2422-31.855 8.2422-46.129 0-14.273-8.2383-23.066-23.469-23.066-39.949zm61.875 300.24v62.977h62.977c5.625 0 10.824 3 13.633 7.8711 2.8125 4.8711 2.8125 10.871 0 15.746-2.8086 4.8711-8.0078 7.8711-13.633 7.8711h-157.44c-5.625 0-10.82-3-13.633-7.8711-2.8125-4.875-2.8125-10.875 0-15.746 2.8125-4.8711 8.0078-7.8711 13.633-7.8711h62.977v-62.977c-36.758-3.957-70.762-21.348-95.488-48.832-24.727-27.488-38.434-63.137-38.492-100.11 0-5.625 3-10.824 7.8711-13.637 4.8711-2.8125 10.871-2.8125 15.746 0 4.8711 2.8125 7.8711 8.0117 7.8711 13.637 2.1016 40.734 25.059 77.512 60.73 97.297 35.672 19.785 79.023 19.785 114.7 0 35.672-19.785 58.625-56.562 60.73-97.297 0-5.625 3-10.824 7.8711-13.637 4.8711-2.8125 10.875-2.8125 15.746 0 4.8711 2.8125 7.8711 8.0117 7.8711 13.637-0.050781 36.922-13.715 72.527-38.375 100.01-24.664 27.48-58.59 44.898-95.293 48.93z"></path>

      </g>
     <g id="IconSvg_iconCarrier">
      <path xmlns="http://www.w3.org/2000/svg" d="m400 467.54c20.57-0.039062 40.289-8.2305 54.836-22.777 14.547-14.547 22.738-34.266 22.781-54.84v-148.46c0-27.73-14.793-53.355-38.809-67.219-24.016-13.867-53.605-13.867-77.621 0-24.012 13.863-38.809 39.488-38.809 67.219v148.46c0.042969 20.574 8.2344 40.293 22.781 54.84s34.266 22.738 54.84 22.777zm-46.133-226.08c0-16.48 8.793-31.711 23.066-39.949 14.273-8.2422 31.855-8.2422 46.129 0 14.273 8.2383 23.066 23.469 23.066 39.949v148.46c0 16.48-8.793 31.711-23.066 39.949-14.273 8.2422-31.855 8.2422-46.129 0-14.273-8.2383-23.066-23.469-23.066-39.949zm61.875 300.24v62.977h62.977c5.625 0 10.824 3 13.633 7.8711 2.8125 4.8711 2.8125 10.871 0 15.746-2.8086 4.8711-8.0078 7.8711-13.633 7.8711h-157.44c-5.625 0-10.82-3-13.633-7.8711-2.8125-4.875-2.8125-10.875 0-15.746 2.8125-4.8711 8.0078-7.8711 13.633-7.8711h62.977v-62.977c-36.758-3.957-70.762-21.348-95.488-48.832-24.727-27.488-38.434-63.137-38.492-100.11 0-5.625 3-10.824 7.8711-13.637 4.8711-2.8125 10.871-2.8125 15.746 0 4.8711 2.8125 7.8711 8.0117 7.8711 13.637 2.1016 40.734 25.059 77.512 60.73 97.297 35.672 19.785 79.023 19.785 114.7 0 35.672-19.785 58.625-56.562 60.73-97.297 0-5.625 3-10.824 7.8711-13.637 4.8711-2.8125 10.875-2.8125 15.746 0 4.8711 2.8125 7.8711 8.0117 7.8711 13.637-0.050781 36.922-13.715 72.527-38.375 100.01-24.664 27.48-58.59 44.898-95.293 48.93z"></path>

      </g>
      </svg>