<!--?xml version="1.0" encoding="UTF-8"?-->
    <!-- The Best Svg Icon site in the world: iconSvg.co, Visit us! https://iconsvg.co -->
    <svg id="svg" fill="#e00000" stroke="#e00000" width="200" height="200" version="1.1" viewBox="144 144 512 512" xmlns="http://www.w3.org/2000/svg">
    <g id="IconSvg_bgCarrier" stroke-width="0"></g>
    <g id="IconSvg_tracerCarrier" stroke-linecap="round" stroke-linejoin="round" stroke="#CCCCCC" stroke-width="0">
      <path xmlns="http://www.w3.org/2000/svg" d="m473.05 296.72h-20.152c-1.5117 0-2.5195 1.0078-2.5195 2.5195v90.688l-118.39-91.695c-1.5117-1.0078-3.5273-1.0078-5.0391 0-1.5117 1.0078-2.5195 2.5156-2.5195 4.5312v192.96c0 2.0156 1.0078 3.5273 2.5195 4.5352 1.0078 0.50391 1.5117 0.50391 2.5195 0.50391 1.0078 0 1.5117 0 2.5195-0.50391l118.39-91.695v92.199c0 1.5117 1.0078 2.5195 2.5195 2.5195h20.152c1.5117 0 2.5195-1.0078 2.5195-2.5195v-201.52c0-1.5117-1.0078-2.5195-2.5195-2.5195z"></path>

      </g>
     <g id="IconSvg_iconCarrier">
      <path xmlns="http://www.w3.org/2000/svg" d="m473.05 296.72h-20.152c-1.5117 0-2.5195 1.0078-2.5195 2.5195v90.688l-118.39-91.695c-1.5117-1.0078-3.5273-1.0078-5.0391 0-1.5117 1.0078-2.5195 2.5156-2.5195 4.5312v192.96c0 2.0156 1.0078 3.5273 2.5195 4.5352 1.0078 0.50391 1.5117 0.50391 2.5195 0.50391 1.0078 0 1.5117 0 2.5195-0.50391l118.39-91.695v92.199c0 1.5117 1.0078 2.5195 2.5195 2.5195h20.152c1.5117 0 2.5195-1.0078 2.5195-2.5195v-201.52c0-1.5117-1.0078-2.5195-2.5195-2.5195z"></path>

      </g>
      </svg>