<?xml version="1.0" encoding="UTF-8"?>
    <!-- The Best Svg Icon site in the world: iconSvg.co, Visit us! https://iconsvg.co -->
    <svg id="svg" fill="#000000" stroke="#000000" width="200px" height="200px" version="1.1" viewBox="144 144 512 512" xmlns="http://www.w3.org/2000/svg">
    <g id="IconSvg_bgCarrier" stroke-width="0"></g>
    <g id="IconSvg_tracerCarrier" stroke-linecap="round" stroke-linejoin="round" stroke="#CCCCCC"></g>
     <g id="IconSvg_iconCarrier">
      <path xmlns="http://www.w3.org/2000/svg" d="m400 198.48c-111.3 0-201.52 90.227-201.52 201.52s90.227 201.52 201.52 201.52 201.52-90.227 201.52-201.52c0-111.3-90.227-201.52-201.52-201.52zm-0.42578 342.5c-13.488 0-24.422-10.934-24.422-24.422 0-13.488 10.934-24.422 24.422-24.422s24.422 10.934 24.422 24.422c0 13.488-10.934 24.422-24.422 24.422zm83.953-192.49c-2.6641 37.391-30.902 69.145-67.68 76.395v39.434h-33.676v-39.664-31.512c5.4688 1.8477 11.309 2.8945 17.402 2.8945 30.051 0 54.414-24.363 54.414-54.414s-24.363-54.414-54.414-54.414-54.414 24.363-54.414 54.414c0 1.4375 0.10547 2.8477 0.21484 4.2539l-29.941 0.26562c-0.28125-9.8906 1.2617-21.754 5.2031-32.422 11.082-30 38.062-51.742 69.871-55.074 52.637-5.5156 96.746 37.539 93.02 89.844z"/>

      </g>
      </svg>